<svg xmlns="http://www.w3.org/2000/svg" xmlns:xlink="http://www.w3.org/1999/xlink" width="126.874" height="124.502" viewBox="0 0 126.874 124.502">
  <defs>
    <clipPath id="clip-path">
      <rect id="Rectangle_6506" data-name="Rectangle 6506" width="2.548" height="9.117" fill="#de837d"/>
    </clipPath>
    <clipPath id="clip-path-2">
      <rect id="Rectangle_6506-2" data-name="Rectangle 6506" width="3.956" height="14.158" fill="#de837d"/>
    </clipPath>
    <clipPath id="clip-path-3">
      <rect id="Rectangle_6506-3" data-name="Rectangle 6506" width="2.41" height="9.117" fill="#de837d"/>
    </clipPath>
    <clipPath id="clip-path-4">
      <rect id="Rectangle_6506-4" data-name="Rectangle 6506" width="3.743" height="14.158" fill="#de837d"/>
    </clipPath>
    <clipPath id="clip-path-5">
      <rect id="Rectangle_6507" data-name="Rectangle 6507" width="104.602" height="57.191" fill="none"/>
    </clipPath>
  </defs>
  <g id="Group_8287" data-name="Group 8287" transform="translate(-576.563 -427.498)">
    <g id="Group_8281" data-name="Group 8281" transform="translate(433.563 253)">
      <ellipse id="Ellipse_10116" data-name="Ellipse 10116" cx="56" cy="12.5" rx="56" ry="12.5" transform="translate(143 274)" fill="#525252" opacity="0.39"/>
    </g>
    <g id="Group_8283" data-name="Group 8283" transform="translate(589.992 442.803)">
      <g id="Group_8258" data-name="Group 8258" transform="translate(0 0)" clip-path="url(#clip-path)">
        <path id="Path_8456" data-name="Path 8456" d="M1.274,0h0A1.379,1.379,0,0,0,0,1.463v6.19A1.378,1.378,0,0,0,1.274,9.116,1.378,1.378,0,0,0,2.548,7.653V1.463A1.378,1.378,0,0,0,1.274,0" transform="translate(0 0)" fill="#de837d"/>
      </g>
    </g>
    <g id="Group_8286" data-name="Group 8286" transform="translate(607.424 427.498)">
      <g id="Group_8258-2" data-name="Group 8258" transform="translate(0 0)" clip-path="url(#clip-path-2)">
        <path id="Path_8456-2" data-name="Path 8456" d="M1.978,0h0A2.141,2.141,0,0,0,0,2.273v9.613a2.14,2.14,0,0,0,1.978,2.272,2.14,2.14,0,0,0,1.978-2.272V2.273A2.141,2.141,0,0,0,1.978,0" transform="translate(0 0)" fill="#de837d"/>
      </g>
    </g>
    <g id="Group_8284" data-name="Group 8284" transform="translate(595.826 446.157) rotate(90)">
      <g id="Group_8258-3" data-name="Group 8258" transform="translate(0 0)" clip-path="url(#clip-path-3)">
        <path id="Path_8456-3" data-name="Path 8456" d="M1.205,0h0A1.353,1.353,0,0,0,0,1.463v6.19A1.353,1.353,0,0,0,1.205,9.117,1.353,1.353,0,0,0,2.41,7.654V1.463A1.353,1.353,0,0,0,1.205,0" transform="translate(0 0)" fill="#de837d"/>
      </g>
    </g>
    <g id="Group_8285" data-name="Group 8285" transform="translate(616.484 432.708) rotate(90)">
      <g id="Group_8258-4" data-name="Group 8258" transform="translate(0 0)" clip-path="url(#clip-path-4)">
        <path id="Path_8456-4" data-name="Path 8456" d="M1.872,0h0A2.1,2.1,0,0,0,0,2.273v9.613a2.1,2.1,0,0,0,1.872,2.272,2.1,2.1,0,0,0,1.872-2.272V2.273A2.1,2.1,0,0,0,1.872,0" transform="translate(0 0)" fill="#de837d"/>
      </g>
    </g>
    <g id="Group_8280" data-name="Group 8280" transform="translate(581.027 483.896)">
      <g id="Group_8279" data-name="Group 8279" clip-path="url(#clip-path-5)">
        <path id="Path_8461" data-name="Path 8461" d="M52.344.007q24.043,0,48.085,0c3.091,0,4.231,1.087,4.17,4.174-.085,4.249.028,8.531-.465,12.738a39.063,39.063,0,0,1-11.3,23.112,39.388,39.388,0,0,1-13.51,9.1c-.71.289-1.026.65-.924,1.421a9.989,9.989,0,0,1,.008,1.48,4.87,4.87,0,0,1-5.172,5.146q-20.909.032-41.819,0c-3.2,0-5.322-2.033-5.162-5.215.1-1.907-.558-2.693-2.275-3.445a39.2,39.2,0,0,1-17-14.359A40.989,40.989,0,0,1,0,10.378c.017-2.2,0-4.407,0-6.611C.013,1.284,1.24.014,3.689.011Q22.889,0,42.089,0H52.344V.007m-.019,3.1V3.093q-17.884,0-35.769,0c-4.139,0-8.278.012-12.417.012-.563,0-1.081-.017-1.046.8.2,4.66-.009,9.377.661,13.967A35.6,35.6,0,0,0,14.989,38.86a36.485,36.485,0,0,0,12.137,7.69,8.6,8.6,0,0,0,2.723.96c14.049.058,28.1.026,42.148.043a13.731,13.731,0,0,0,5.7-1.019c11.966-5.173,19.6-13.98,22.83-26.613,1.289-5.04.966-10.182,1-15.3.009-1.5-.017-1.508-1.465-1.509q-23.865,0-47.729,0M29.407,50.6c-.4,2.759.2,3.472,2.733,3.472q20.157,0,40.315,0a7.146,7.146,0,0,0,1.584-.1c1.011-.233,1.469-1.275,1.3-2.7-.128-1.109-.978-.641-1.5-.642q-21.524-.039-43.047-.021H29.407" transform="translate(0 0)" fill="#383838"/>
        <path id="Path_8462" data-name="Path 8462" d="M62.8,13.588q23.865,0,47.73,0c1.448,0,1.474.008,1.465,1.509-.03,5.119.293,10.261-1,15.3-3.231,12.633-10.864,21.44-22.83,26.613a13.731,13.731,0,0,1-5.7,1.019c-14.049-.017-28.1.015-42.148-.043a8.593,8.593,0,0,1-2.723-.96,36.485,36.485,0,0,1-12.137-7.69,35.6,35.6,0,0,1-11.235-20.99c-.67-4.59-.461-9.308-.661-13.967-.035-.814.483-.8,1.046-.8,4.139,0,8.278-.012,12.417-.012q17.884,0,35.769,0Zm45.286,15.106c-.216-.921-.553-1.509-1.371-1.72a1.463,1.463,0,0,0-1.822.968,6.79,6.79,0,0,0-.338,1.2,29.317,29.317,0,0,1-5.68,11.783c-1.207,1.5-2.649,2.811-3.884,4.292a2.412,2.412,0,0,0-.458,1.72,1.464,1.464,0,0,0,1.1.911,2.723,2.723,0,0,0,1.679-.671,31.794,31.794,0,0,0,7.811-10.522c1.167-2.572,1.985-5.3,2.959-7.961M25.1,39.7c-.558.493-1.24.81-1.292,1.208a2.862,2.862,0,0,0,.451,1.947A33.855,33.855,0,0,0,39.434,54.044c1.172.441,2.036.165,2.38-.762.32-.862-.131-1.662-1.2-2.11-.874-.366-1.774-.675-2.626-1.085A31.285,31.285,0,0,1,26.8,41.148,11.984,11.984,0,0,0,25.1,39.7m-4.083-7.86c-1.448-.036-2.167,1-1.741,2.143.409,1.1.914,2.169,1.421,3.23a1.512,1.512,0,1,0,2.753-1.251A27.546,27.546,0,0,0,22,32.742a3.568,3.568,0,0,0-.982-.907m87.459-11.576h0a13.6,13.6,0,0,0-.018-1.924,1.261,1.261,0,0,0-1.5-1.205,2.038,2.038,0,0,0-1.37,1.2,17.062,17.062,0,0,0-.067,3.729,1.35,1.35,0,0,0,1.46,1.3,1.369,1.369,0,0,0,1.474-1.288,14.548,14.548,0,0,0,.015-1.812" transform="translate(-10.477 -10.478)" fill="#fde8df"/>
        <path id="Path_8463" data-name="Path 8463" d="M128.675,221.811h1.387q21.523,0,43.047.021c.524,0,1.374-.467,1.5.642.165,1.428-.294,2.47-1.3,2.7a7.149,7.149,0,0,1-1.584.1q-20.157.007-40.315,0c-2.529,0-3.13-.713-2.733-3.472" transform="translate(-99.267 -171.208)" fill="#fde8df"/>
        <path id="Path_8464" data-name="Path 8464" d="M382.377,73.906c-.974,2.659-1.792,5.39-2.959,7.961a31.792,31.792,0,0,1-7.811,10.522,2.723,2.723,0,0,1-1.679.671,1.465,1.465,0,0,1-1.1-.912,2.411,2.411,0,0,1,.458-1.72c1.235-1.481,2.677-2.791,3.884-4.292a29.318,29.318,0,0,0,5.68-11.782,6.775,6.775,0,0,1,.338-1.2,1.463,1.463,0,0,1,1.822-.968c.818.211,1.155.8,1.371,1.72" transform="translate(-284.765 -55.69)" fill="#fde8df"/>
        <path id="Path_8465" data-name="Path 8465" d="M59.73,128.219a11.968,11.968,0,0,1,1.7,1.453,31.284,31.284,0,0,0,11.183,8.939c.852.41,1.752.719,2.626,1.085,1.07.448,1.521,1.248,1.2,2.11-.344.927-1.208,1.2-2.38.762a33.856,33.856,0,0,1-15.173-11.193,2.862,2.862,0,0,1-.451-1.947c.052-.4.734-.715,1.292-1.208" transform="translate(-45.105 -99.002)" fill="#383838"/>
        <path id="Path_8466" data-name="Path 8466" d="M39.953,93.721a3.564,3.564,0,0,1,.982.907,27.491,27.491,0,0,1,1.45,3.215,1.512,1.512,0,1,1-2.753,1.251c-.507-1.061-1.012-2.129-1.421-3.23-.425-1.146.293-2.179,1.741-2.143" transform="translate(-29.411 -72.364)" fill="#383838"/>
        <path id="Path_8467" data-name="Path 8467" d="M419.851,32.21a14.554,14.554,0,0,1-.015,1.812,1.369,1.369,0,0,1-1.474,1.288,1.35,1.35,0,0,1-1.46-1.3,17.063,17.063,0,0,1,.067-3.729,2.038,2.038,0,0,1,1.37-1.2,1.261,1.261,0,0,1,1.5,1.205,13.6,13.6,0,0,1,.018,1.924Z" transform="translate(-321.85 -22.429)" fill="#fde8df"/>
      </g>
    </g>
    <g id="Path_8471" data-name="Path 8471" transform="translate(608.76 441.235)" fill="#fde8df">
      <path d="M 35.62767791748047 69.75592803955078 C 31.01981163024902 69.75592803955078 26.55057716369629 68.85379028320312 22.3441104888916 67.07459259033203 C 18.2803897857666 65.35577392578125 14.63047790527344 62.89481735229492 11.49576663970947 59.76008224487305 C 8.361055374145508 56.62533950805664 5.900122165679932 52.97540283203125 4.181311130523682 48.91164779663086 C 2.402122259140015 44.70515060424805 1.50000011920929 40.23587036132812 1.50000011920929 35.62796020507812 C 1.50000011920929 31.02004814147949 2.402122259140015 26.55077171325684 4.181311130523682 22.34427070617676 C 5.900122165679932 18.28052711486816 8.361055374145508 14.63058280944824 11.49576663970947 11.49584865570068 C 14.63047790527344 8.361115455627441 18.2803897857666 5.900148868560791 22.3441104888916 4.181326866149902 C 26.55057716369629 2.402137994766235 31.01981163024902 1.500004649162292 35.62767791748047 1.500004649162292 C 40.23554611206055 1.500004649162292 44.70477676391602 2.402137994766235 48.9112434387207 4.181326866149902 C 52.97496795654297 5.900148868560791 56.6248779296875 8.361115455627441 59.75959014892578 11.49584865570068 C 62.8942985534668 14.63058280944824 65.35523223876953 18.28052711486816 67.07404327392578 22.34427070617676 C 68.85323333740234 26.55077171325684 69.75535583496094 31.02004814147949 69.75535583496094 35.62796020507812 C 69.75535583496094 40.23587036132812 68.85323333740234 44.70515060424805 67.07404327392578 48.91164779663086 C 65.35523223876953 52.97540283203125 62.8942985534668 56.62533950805664 59.75959014892578 59.76008224487305 C 56.6248779296875 62.89481735229492 52.97496795654297 65.35577392578125 48.9112434387207 67.07459259033203 C 44.70477676391602 68.85379028320312 40.23554611206055 69.75592803955078 35.62767791748047 69.75592803955078 Z" stroke="none"/>
      <path d="M 35.62767791748047 2.999992370605469 C 31.22165298461914 2.999992370605469 26.94900894165039 3.862251281738281 22.92844390869141 5.562828063964844 C 19.04351425170898 7.206031799316406 15.55386734008789 9.559032440185547 12.55643081665039 12.55649948120117 C 9.558994293212891 15.55395889282227 7.20599365234375 19.04364395141602 5.56280517578125 22.92859649658203 C 3.862251281738281 26.9492073059082 2.999992370605469 31.22188949584961 2.999992370605469 35.62796020507812 C 2.999992370605469 40.03403091430664 3.862251281738281 44.30671310424805 5.56280517578125 48.32732391357422 C 7.20599365234375 52.2122802734375 9.558994293212891 55.70195007324219 12.55643081665039 58.69941711425781 C 15.55386734008789 61.69687652587891 19.04351425170898 64.04988861083984 22.92844390869141 65.69307708740234 C 26.94900894165039 67.39365386962891 31.22165298461914 68.25591278076172 35.62767791748047 68.25591278076172 C 40.03369903564453 68.25591278076172 44.30635070800781 67.39365386962891 48.32691192626953 65.69307708740234 C 52.21183013916016 64.04988861083984 55.70147705078125 61.69687652587891 58.69891357421875 58.69941711425781 C 61.69636154174805 55.70195007324219 64.04934692382812 52.2122802734375 65.69253540039062 48.32732391357422 C 67.39308929443359 44.30671310424805 68.25534820556641 40.03403091430664 68.25534820556641 35.62796020507812 C 68.25534820556641 31.22188949584961 67.39308929443359 26.9492073059082 65.69253540039062 22.92859649658203 C 64.04934692382812 19.04364395141602 61.69636154174805 15.55395889282227 58.69891357421875 12.55649948120117 C 55.70147705078125 9.559032440185547 52.21183013916016 7.206031799316406 48.32691192626953 5.562828063964844 C 44.30635070800781 3.862251281738281 40.03369903564453 2.999992370605469 35.62767791748047 2.999992370605469 M 35.62767791748047 -7.62939453125e-06 C 55.30430221557617 -7.62939453125e-06 71.25534820556641 15.9511833190918 71.25534820556641 35.62796020507812 C 71.25534820556641 55.30473709106445 55.30430221557617 71.25591278076172 35.62767791748047 71.25591278076172 C 15.95105361938477 71.25591278076172 -7.62939453125e-06 55.30473709106445 -7.62939453125e-06 35.62796020507812 C -7.62939453125e-06 15.9511833190918 15.95105361938477 -7.62939453125e-06 35.62767791748047 -7.62939453125e-06 Z" stroke="none" fill="#383838"/>
    </g>
    <g id="Path_8469" data-name="Path 8469" transform="translate(614.549 447.025)" fill="#fde8df">
      <path d="M 29.83784675598145 58.17616271972656 C 26.0115966796875 58.17616271972656 22.30060768127441 57.4271125793457 18.80793762207031 55.94983291625977 C 15.43366718292236 54.52262115478516 12.40294647216797 52.47914123535156 9.799966812133789 49.87613296508789 C 7.196976661682129 47.27313232421875 5.153506755828857 44.24238204956055 3.726306676864624 40.86808013916016 C 2.24903678894043 37.37539291381836 1.499996781349182 33.66436004638672 1.499996781349182 29.83808135986328 C 1.499996781349182 26.01180076599121 2.24903678894043 22.30077171325684 3.726306676864624 18.80808067321777 C 5.153506755828857 15.43378162384033 7.196976661682129 12.40303134918213 9.799966812133789 9.800031661987305 C 12.40294647216797 7.197021484375 15.43366718292236 5.153541564941406 18.80793762207031 3.726331472396851 C 22.30060768127441 2.249051332473755 26.0115966796875 1.500001311302185 29.83784675598145 1.500001311302185 C 33.66409683227539 1.500001311302185 37.37508773803711 2.249051332473755 40.86775588989258 3.726331472396851 C 44.24202728271484 5.153541564941406 47.27274703979492 7.197021484375 49.87572860717773 9.800031661987305 C 52.47871780395508 12.40303134918213 54.52218627929688 15.43378162384033 55.94938659667969 18.80808067321777 C 57.42665863037109 22.30077171325684 58.17569732666016 26.01180076599121 58.17569732666016 29.83808135986328 C 58.17569732666016 33.66436004638672 57.42665863037109 37.37539291381836 55.94938659667969 40.86808013916016 C 54.52218627929688 44.24238204956055 52.47871780395508 47.27313232421875 49.87572860717773 49.87613296508789 C 47.27274703979492 52.47914123535156 44.24202728271484 54.52262115478516 40.86775588989258 55.94983291625977 C 37.37508773803711 57.4271125793457 33.66409683227539 58.17616271972656 29.83784675598145 58.17616271972656 Z" stroke="none"/>
      <path d="M 29.83784675598145 3.000003814697266 C 26.21343612670898 3.000003814697266 22.69904708862305 3.709182739257812 19.39226913452148 5.107837677001953 C 16.19680404663086 6.459415435791016 13.32634735107422 8.39495849609375 10.86063385009766 10.86067962646484 C 8.394924163818359 13.326416015625 6.459403991699219 16.19689178466797 5.107826232910156 19.39240264892578 C 3.709178924560547 22.69920349121094 3.000003814697266 26.21363830566406 3.000003814697266 29.83808135986328 C 3.000003814697266 33.4625244140625 3.709178924560547 36.97695922851562 5.107826232910156 40.28376007080078 C 6.459403991699219 43.47927093505859 8.394924163818359 46.34974670410156 10.86063385009766 48.81548309326172 C 13.32634735107422 51.28120422363281 16.19680404663086 53.21674728393555 19.39226913452148 54.56832504272461 C 22.69904708862305 55.96697998046875 26.21343612670898 56.6761589050293 29.83784675598145 56.6761589050293 C 33.46225738525391 56.6761589050293 36.97664642333984 55.96697998046875 40.28342437744141 54.56832504272461 C 43.47888946533203 53.21674728393555 46.34934616088867 51.28120422363281 48.81505584716797 48.81548309326172 C 51.28076934814453 46.34974670410156 53.21629333496094 43.47927093505859 54.56787109375 40.28376007080078 C 55.96651458740234 36.97695922851562 56.67568969726562 33.4625244140625 56.67568969726562 29.83808135986328 C 56.67568969726562 26.21363830566406 55.96651458740234 22.69920349121094 54.56787109375 19.39240264892578 C 53.21629333496094 16.19689178466797 51.28076934814453 13.326416015625 48.81505584716797 10.86067962646484 C 46.34934616088867 8.39495849609375 43.47888946533203 6.459415435791016 40.28342437744141 5.107837677001953 C 36.97664642333984 3.709182739257812 33.46225738525391 3.000003814697266 29.83784675598145 3.000003814697266 M 29.83784675598145 3.814697265625e-06 C 46.31683349609375 3.814697265625e-06 59.67568969726562 13.35895919799805 59.67568969726562 29.83808135986328 C 59.67568969726562 46.31720352172852 46.31683349609375 59.6761589050293 29.83784675598145 59.6761589050293 C 13.35885620117188 59.6761589050293 3.814697265625e-06 46.31720352172852 3.814697265625e-06 29.83808135986328 C 3.814697265625e-06 13.35895919799805 13.35885620117188 3.814697265625e-06 29.83784675598145 3.814697265625e-06 Z" stroke="none" fill="#383838"/>
    </g>
    <line id="Line_2231" data-name="Line 2231" x2="6.681" y2="6.722" transform="translate(668.928 502.277)" fill="none" stroke="#383838" stroke-width="3"/>
    <path id="Path_8468" data-name="Path 8468" d="M0,0H8.5V35.162A3.734,3.734,0,0,1,4.768,38.9H3.733A3.733,3.733,0,0,1,0,35.162Z" transform="translate(669.922 509.321) rotate(-45)" fill="#383838"/>
    <g id="Group_8282" data-name="Group 8282" transform="translate(631.801 465.851)">
      <ellipse id="Ellipse_10109" data-name="Ellipse 10109" cx="2.36" cy="3.933" rx="2.36" ry="3.933" fill="#da2519"/>
      <ellipse id="Ellipse_10110" data-name="Ellipse 10110" cx="2.36" cy="3.933" rx="2.36" ry="3.933" transform="translate(20.452)" fill="#da2519"/>
    </g>
    <path id="Path_8470" data-name="Path 8470" d="M9.274,0c5.769,0,9.515,2.356,9.515,3.929s-6.368.79-8.99.79S1.483,5.5.434,4.454,4.554,0,9.274,0Z" transform="translate(634.676 483.156)" fill="#da2519"/>
  </g>
</svg>
