<svg xmlns="http://www.w3.org/2000/svg" width="24.349" height="24.349" viewBox="0 0 24.349 24.349"><defs><style>.a{fill:#999;}</style></defs><g transform="translate(-6 -6)"><path class="a" d="M10.9,16.544a20.372,20.372,0,0,0,8.914,8.908l2.976-2.983a1.357,1.357,0,0,1,1.373-.331A15.4,15.4,0,0,0,29,22.909a1.348,1.348,0,0,1,1.353,1.353V29A1.348,1.348,0,0,1,29,30.349a22.994,22.994,0,0,1-23-23A1.352,1.352,0,0,1,7.353,6h4.734A1.348,1.348,0,0,1,13.44,7.353a15.4,15.4,0,0,0,.771,4.829,1.357,1.357,0,0,1-.331,1.373Z"/></g></svg>