<svg xmlns="http://www.w3.org/2000/svg" width="35" height="35" viewBox="0 0 35 35">
  <g id="Group_8070" data-name="Group 8070" transform="translate(-54 -204)">
    <circle id="Ellipse_10119" data-name="Ellipse 10119" cx="17.5" cy="17.5" r="17.5" transform="translate(54 204)" fill="#da2519"/>
    <path id="Path_8430" data-name="Path 8430" d="M34.654.005,31.52,0c-3.522,0-5.8,2.335-5.8,5.949V8.692H22.57a.493.493,0,0,0-.493.493v3.974a.493.493,0,0,0,.493.493h3.152V23.68a.493.493,0,0,0,.493.493h4.112a.493.493,0,0,0,.493-.493V13.652h3.685A.493.493,0,0,0,35,13.159l0-3.974a.493.493,0,0,0-.493-.493H30.82V6.367c0-1.118.266-1.685,1.722-1.685h2.112a.493.493,0,0,0,.493-.493V.5A.493.493,0,0,0,34.654.005Z" transform="translate(42.924 209)" fill="#fff"/>
  </g>
</svg>
