<svg xmlns="http://www.w3.org/2000/svg" width="35" height="35" viewBox="0 0 35 35">
  <g id="Group_8207" data-name="Group 8207" transform="translate(5645 7119)">
    <circle id="Ellipse_10121" data-name="Ellipse 10121" cx="17.5" cy="17.5" r="17.5" transform="translate(-5645 -7119)" fill="#da2519"/>
    <path id="Icon_awesome-pinterest-p" data-name="Icon awesome-pinterest-p" d="M10.278.457C5.109.457,0,3.9,0,9.481c0,3.547,2,5.562,3.2,5.562.5,0,.786-1.391.786-1.784,0-.469-1.194-1.466-1.194-3.416A6.809,6.809,0,0,1,9.87,2.921c3.431,0,5.97,1.95,5.97,5.532,0,2.675-1.073,7.693-4.55,7.693a2.237,2.237,0,0,1-2.328-2.207c0-1.9,1.33-3.748,1.33-5.713,0-3.335-4.731-2.731-4.731,1.3a5.919,5.919,0,0,0,.484,2.554c-.7,2.993-2.116,7.452-2.116,10.535,0,.952.136,1.889.227,2.842.171.191.086.171.348.076,2.539-3.476,2.449-4.157,3.6-8.706a4.086,4.086,0,0,0,3.492,1.814c5.351,0,7.754-5.215,7.754-9.915C19.347,3.722,15.024.457,10.278.457Z" transform="translate(-5637.174 -7114.457)" fill="#fff"/>
  </g>
</svg>
